<?xml version="1.0" encoding="utf-8"?>
<!-- Generator: Adobe Illustrator 27.5.0, SVG Export Plug-In . SVG Version: 6.00 Build 0)  -->
<svg version="1.1" id="Layer_1" xmlns="http://www.w3.org/2000/svg" xmlns:xlink="http://www.w3.org/1999/xlink" x="0px" y="0px"
	 viewBox="0 0 800 800" style="enable-background:new 0 0 800 800;" xml:space="preserve">
<style type="text/css">
	.st0{fill:#FFFFFF;}
	.st1{fill:url(#SVGID_1_);}
	.st2{fill:url(#SVGID_00000067927229331241773820000014904898849424543635_);}
	.st3{fill:url(#SVGID_00000176005620636359362370000014344154215178830986_);}
	.st4{fill:url(#SVGID_00000083089487900735066660000001933962490377047441_);}
	.st5{fill:url(#SVGID_00000016044111085202331680000006845648795493527988_);}
	.st6{fill:url(#SVGID_00000055671256301647484430000001914104396799131285_);}
	.st7{fill:url(#SVGID_00000093898007561397036890000016020146679739237821_);}
</style>
<g>
	<path class="st0" d="M0,289.5c0-101.3,0-152,19.7-190.7c17.3-34,45-61.7,79.1-79.1C137.5,0,188.2,0,289.5,0h221
		c101.3,0,152,0,190.7,19.7c34,17.3,61.7,45,79.1,79.1C800,137.5,800,188.2,800,289.5v221c0,101.3,0,152-19.7,190.7
		c-17.3,34-45,61.7-79.1,79.1C662.5,800,611.8,800,510.5,800h-221c-101.3,0-152,0-190.7-19.7c-34-17.3-61.7-45-79.1-79.1
		C0,662.5,0,611.8,0,510.5V289.5z"/>
	
		<radialGradient id="SVGID_1_" cx="273.2334" cy="551.3318" r="1.1415" gradientTransform="matrix(285.8332 305.1276 312.5351 -292.7723 -249744.2656 78726.9609)" gradientUnits="userSpaceOnUse">
		<stop  offset="0" style="stop-color:#68E048"/>
		<stop  offset="1" style="stop-color:#5CE049;stop-opacity:0"/>
	</radialGradient>
	<path class="st1" d="M0,289.5c0-101.3,0-152,19.7-190.7c17.3-34,45-61.7,79.1-79.1C137.5,0,188.2,0,289.5,0h221
		c101.3,0,152,0,190.7,19.7c34,17.3,61.7,45,79.1,79.1C800,137.5,800,188.2,800,289.5v221c0,101.3,0,152-19.7,190.7
		c-17.3,34-45,61.7-79.1,79.1C662.5,800,611.8,800,510.5,800h-221c-101.3,0-152,0-190.7-19.7c-34-17.3-61.7-45-79.1-79.1
		C0,662.5,0,611.8,0,510.5V289.5z"/>
	
		<radialGradient id="SVGID_00000044885842705460081340000009309761923565312687_" cx="274.1919" cy="550.5644" r="1.1429" gradientTransform="matrix(-313.5396 288.6782 296.7928 322.3529 -77306.8438 -255948.9375)" gradientUnits="userSpaceOnUse">
		<stop  offset="0" style="stop-color:#308CFE"/>
		<stop  offset="1" style="stop-color:#2F8BFF;stop-opacity:0"/>
	</radialGradient>
	<path style="fill:url(#SVGID_00000044885842705460081340000009309761923565312687_);" d="M0,289.5c0-101.3,0-152,19.7-190.7
		c17.3-34,45-61.7,79.1-79.1C137.5,0,188.2,0,289.5,0h221c101.3,0,152,0,190.7,19.7c34,17.3,61.7,45,79.1,79.1
		C800,137.5,800,188.2,800,289.5v221c0,101.3,0,152-19.7,190.7c-17.3,34-45,61.7-79.1,79.1C662.5,800,611.8,800,510.5,800h-221
		c-101.3,0-152,0-190.7-19.7c-34-17.3-61.7-45-79.1-79.1C0,662.5,0,611.8,0,510.5V289.5z"/>
	
		<radialGradient id="SVGID_00000141438881398315972820000009455013221844785793_" cx="272.9059" cy="552.1882" r="1.1429" gradientTransform="matrix(247.917 34.4018 36.1549 -260.551 -86972.3203 134932.6094)" gradientUnits="userSpaceOnUse">
		<stop  offset="0" style="stop-color:#FDD511"/>
		<stop  offset="1" style="stop-color:#FDD20D;stop-opacity:0"/>
	</radialGradient>
	<path style="fill:url(#SVGID_00000141438881398315972820000009455013221844785793_);" d="M0,289.5c0-101.3,0-152,19.7-190.7
		c17.3-34,45-61.7,79.1-79.1C137.5,0,188.2,0,289.5,0h221c101.3,0,152,0,190.7,19.7c34,17.3,61.7,45,79.1,79.1
		C800,137.5,800,188.2,800,289.5v221c0,101.3,0,152-19.7,190.7c-17.3,34-45,61.7-79.1,79.1C662.5,800,611.8,800,510.5,800h-221
		c-101.3,0-152,0-190.7-19.7c-34-17.3-61.7-45-79.1-79.1C0,662.5,0,611.8,0,510.5V289.5z"/>
	
		<radialGradient id="SVGID_00000175312096384250981280000018397091104576453019_" cx="275.0683" cy="551.6283" r="1.1429" gradientTransform="matrix(-223.1236 -294.6586 -300.2372 227.3479 227130.2656 -44071.3594)" gradientUnits="userSpaceOnUse">
		<stop  offset="0" style="stop-color:#F928C2"/>
		<stop  offset="1" style="stop-color:#F922BC;stop-opacity:0"/>
	</radialGradient>
	<path style="fill:url(#SVGID_00000175312096384250981280000018397091104576453019_);" d="M0,289.5c0-101.3,0-152,19.7-190.7
		c17.3-34,45-61.7,79.1-79.1C137.5,0,188.2,0,289.5,0h221c101.3,0,152,0,190.7,19.7c34,17.3,61.7,45,79.1,79.1
		C800,137.5,800,188.2,800,289.5v221c0,101.3,0,152-19.7,190.7c-17.3,34-45,61.7-79.1,79.1C662.5,800,611.8,800,510.5,800h-221
		c-101.3,0-152,0-190.7-19.7c-34-17.3-61.7-45-79.1-79.1C0,662.5,0,611.8,0,510.5V289.5z"/>
	
		<radialGradient id="SVGID_00000001664253416663924730000012451460453292700549_" cx="274.3575" cy="552.374" r="1.1429" gradientTransform="matrix(166.2499 -332.0513 -335.5074 -167.9803 140166.9375 184022.0469)" gradientUnits="userSpaceOnUse">
		<stop  offset="0" style="stop-color:#F90700"/>
		<stop  offset="1" style="stop-color:#F90700;stop-opacity:0"/>
	</radialGradient>
	<path style="fill:url(#SVGID_00000001664253416663924730000012451460453292700549_);" d="M0,289.5c0-101.3,0-152,19.7-190.7
		c17.3-34,45-61.7,79.1-79.1C137.5,0,188.2,0,289.5,0h221c101.3,0,152,0,190.7,19.7c34,17.3,61.7,45,79.1,79.1
		C800,137.5,800,188.2,800,289.5v221c0,101.3,0,152-19.7,190.7c-17.3,34-45,61.7-79.1,79.1C662.5,800,611.8,800,510.5,800h-221
		c-101.3,0-152,0-190.7-19.7c-34-17.3-61.7-45-79.1-79.1C0,662.5,0,611.8,0,510.5V289.5z"/>
	
		<radialGradient id="SVGID_00000150068066951979316230000008810935174419216550_" cx="274.7384" cy="552.8486" r="1.1429" gradientTransform="matrix(91.8749 -203.4189 -205.209 -92.6835 88964.6016 107243.1484)" gradientUnits="userSpaceOnUse">
		<stop  offset="0" style="stop-color:#FB4200"/>
		<stop  offset="1" style="stop-color:#FB4300;stop-opacity:0"/>
	</radialGradient>
	<path style="fill:url(#SVGID_00000150068066951979316230000008810935174419216550_);" d="M0,289.5c0-101.3,0-152,19.7-190.7
		c17.3-34,45-61.7,79.1-79.1C137.5,0,188.2,0,289.5,0h221c101.3,0,152,0,190.7,19.7c34,17.3,61.7,45,79.1,79.1
		C800,137.5,800,188.2,800,289.5v221c0,101.3,0,152-19.7,190.7c-17.3,34-45,61.7-79.1,79.1C662.5,800,611.8,800,510.5,800h-221
		c-101.3,0-152,0-190.7-19.7c-34-17.3-61.7-45-79.1-79.1C0,662.5,0,611.8,0,510.5V289.5z"/>
	
		<radialGradient id="SVGID_00000128449885569124589610000014051778854756623746_" cx="276.1358" cy="551.5414" r="1.1429" gradientTransform="matrix(-137.0833 -143.5899 -147.146 140.4783 119094.0703 -37731.8359)" gradientUnits="userSpaceOnUse">
		<stop  offset="0" style="stop-color:#FE0D88"/>
		<stop  offset="1" style="stop-color:#FE0D88;stop-opacity:0"/>
	</radialGradient>
	<path style="fill:url(#SVGID_00000128449885569124589610000014051778854756623746_);" d="M0,289.5c0-101.3,0-152,19.7-190.7
		c17.3-34,45-61.7,79.1-79.1C137.5,0,188.2,0,289.5,0h221c101.3,0,152,0,190.7,19.7c34,17.3,61.7,45,79.1,79.1
		C800,137.5,800,188.2,800,289.5v221c0,101.3,0,152-19.7,190.7c-17.3,34-45,61.7-79.1,79.1C662.5,800,611.8,800,510.5,800h-221
		c-101.3,0-152,0-190.7-19.7c-34-17.3-61.7-45-79.1-79.1C0,662.5,0,611.8,0,510.5V289.5z"/>
	<path class="st0" d="M642,241c-42.3-46.8-102-73.2-164-72.8c-60.7,0-122.3,26.7-162,69.7c-7.3-0.7-14.7-1.4-21.7-1.4
		c-119,0-192.7,102.6-192.7,197.6c0.3,51.3,19.7,100.5,54,138.1c36,39.3,86,61.5,138.7,61.5H478c124.7,0,226-105,226-233.5
		C703.3,341.2,681.3,284.4,642,241z M290.7,600.3c-88.3,0-159.7-73.5-159.7-164.1c0-89.9,71-163.1,159-163.8c39,0,80,13,106,41.4
		l67,70.4c11,11.6,10.7,30.1-0.7,41.4C451,436.9,433,436.6,422,425l-65.3-69.1c-42.7-37.6-107-32.8-143.7,10.9
		c-16,18.8-24.7,43.1-24.7,68c0,57.4,47.7,106,104,106h13c18.7,26.7,71,59.5,71,59.5H290.7z M618,541.5
		c-35.7,38.3-85,59.8-136.7,60.2c-49,0-99-22.6-137.3-61.5l-87.3-90.3c-11-11.6-10.7-30.1,0.3-41.4c5.3-5.5,12.3-8.2,20-8.2
		c7.7,0,15,3.1,20.3,8.9l87,89.2c27.7,28.4,63,44.4,97,44.4c36.3,0,71-15.4,96-42.7c25.7-27,40-63.2,40-100.9
		c0-77.3-61.3-139.8-136.7-140.2c-28.7,0-52.3,5.8-75.7,22.6c-13.2-13.5-41.7-27-54.7-29.7c36-34.5,81-51.3,130.3-51.3
		c107,0,193.3,88.9,193.7,198.6C674.3,452.3,654.3,503.6,618,541.5z"/>
</g>
</svg>
