<?xml version="1.0" encoding="utf-8"?>
<!-- Generator: Adobe Illustrator 27.5.0, SVG Export Plug-In . SVG Version: 6.00 Build 0)  -->
<svg version="1.1" id="Layer_1" xmlns="http://www.w3.org/2000/svg" xmlns:xlink="http://www.w3.org/1999/xlink" x="0px" y="0px"
	 viewBox="0 0 800 800" style="enable-background:new 0 0 800 800;" xml:space="preserve">
<style type="text/css">
	.st0{fill:#74BB11;}
	.st1{fill:#009CD9;}
	.st2{fill:#EB2084;}
</style>
<g id="XMLID_1_">
	<path id="XMLID_7_" class="st0" d="M712.14,21.57L712.14,21.57C705.57,8.44,692.44,0,676.5,0h-62.84
		c-17.82,0-31.89,7.5-38.45,20.63l-92.85,135.05l80.66,110.67L704.63,63.77C720.58,45.02,714.95,28.14,712.14,21.57"/>
	<path id="XMLID_8_" class="st1" d="M224.45,19.7L224.45,19.7C210.38,0.94,191.62,0.94,185.06,0.94H124.1
		c-15.94,0-28.14,7.5-34.7,19.7c-6.56,13.13-5.63,28.14,3.75,42.2l226.03,313.25L59.38,739.04c-9.38,14.07-10.32,29.07-3.75,41.27
		c6.57,12.19,19.7,19.7,34.7,19.7h62.84c15.94,0,30.01-8.44,37.51-21.57l290.74-401.41L224.45,19.7z"/>
	<path id="XMLID_9_" class="st2" d="M743.09,741.85L561.14,492.38l-79.72,109.73l143.49,191.32l3.75,1.88
		c6.57,2.81,12.19,3.75,17.82,3.75h60.96c15.01,0,27.2-6.57,34.7-17.82C750.59,770.93,750.59,755.92,743.09,741.85"/>
</g>
</svg>
